Jarek and Caleb arrive first on the scene at a bank robbery and chase the thief through the streets of Chicago only to find he has met a gruesome end. As the Chicago Police Department pieces together the clues of the robber, Superintendent Colvin conducts a critical meeting with Alderman Gibbons about a key construction site. Duplicitous politicking raises the stakes and further exposes the depth of corruption in the city.

Aired 2/21/2011

General
Complete name                    :The Chicago Code S01E03 HDTV_JHW.mp4
Format                           : MPEG-4
Format profile                   : Base Media / Version 2
Codec ID                         : mp42
File size                        : 284 MiB
Duration                         : 43mn 41s
Overall bit rate                 : 909 Kbps
Encoded date                     : UTC 2011-02-21 04:00:36
Tagged date                      : UTC 2011-02-21 04:00:36
Writing library                  : AVS 

Video
ID                               : 1
Format                           : AVC
Format/Info                      : Advanced Video Codec
Format profile                   : Main@L5.1
Format settings, CABAC           : Yes
Format settings, ReFrames        : 2 frames
Format settings, GOP             : M=1, N=2
Codec ID                         : avc1
Codec ID/Info                    : Advanced Video Coding
Duration                         : 43mn 41s
Bit rate mode                    : Variable
Bit rate                         : 794 Kbps
Width                            : 720 pixels
Height                           : 400 pixels
Display aspect ratio             : 16:9
Frame rate mode                  : Constant
Frame rate                       : 29.970 fps
Color space                      : YUV
Chroma subsampling               : 4:2:0
Bit depth                        : 8 bits
Scan type                        : Progressive
Bits/(Pixel*Frame)               : 0.092
Stream size                      : 248 MiB (87%)
Language                         : English
Encoded date                     : UTC 2011-02-21 04:00:36
Tagged date                      : UTC 2011-02-21 04:00:36

Audio
ID                               : 2
Format                           : AAC
Format/Info                      : Advanced Audio Codec
Format profile                   : LC
Codec ID                         : 40
Duration                         : 43mn 41s
Bit rate mode                    : Constant
Bit rate                         : 106 Kbps
Nominal bit rate                 : 96.0 Kbps
Channel(s)                       : 2 channels
Channel positions                : Front: L R
Sampling rate                    : 48.0 KHz
Compression mode                 : Lossy
Stream size                      : 33.2 MiB (12%)
Language                         : English
Encoded date                     : UTC 2011-02-21 04:00:36
Tagged date                      : UTC 2011-02-21 04:00:36
 
http://img222.imageshack.us/img222/3975/vlcsnap2011022123h11m13.png
 
http://img341.imageshack.us/img341/1459/vlcsnap2011022123h11m37.png

 
http://img833.imageshack.us/img833/6785/vlcsnap2011022123h12m09.png
 
http://img84.imageshack.us/img84/2936/vlcsnap2011022123h12m21.png
 
http://img708.imageshack.us/img708/2106/vlcsnap2011022123h13m02.png